<svg width="19" height="20" viewBox="0 0 19 20" fill="none" xmlns="http://www.w3.org/2000/svg">
<path fill-rule="evenodd" clip-rule="evenodd" d="M6.87585 15.2617H3.56903C2.99082 15.2617 2.52209 14.793 2.52209 14.2148V13.5316C2.52209 13.136 2.67922 12.7567 2.95891 12.4771C3.68144 11.7545 4.08735 10.7745 4.08735 9.75272V7.43544C4.08735 4.4098 6.54012 1.95703 9.56576 1.95703C12.5914 1.95703 15.0442 4.4098 15.0442 7.43544V9.75272C15.0442 10.7745 15.4501 11.7545 16.1726 12.4771C16.4523 12.7567 16.6094 13.136 16.6094 13.5316V14.2148C16.6094 14.793 16.1407 15.2617 15.5625 15.2617H12.2557C12.2557 15.5407 12.2466 16.0728 11.966 16.5823C11.5015 17.4254 10.6016 18.0009 9.56576 18.0009C8.52979 18.0009 7.62996 17.4254 7.16552 16.5823C6.88489 16.0728 6.87585 15.5407 6.87585 15.2617ZM15.3425 13.3071C15.4021 13.3667 15.4355 13.4474 15.4355 13.5316V14.0878H3.69604V13.5316C3.69604 13.4474 3.72948 13.3667 3.78901 13.3071C4.7317 12.3644 5.2613 11.0859 5.2613 9.75272V7.43544C5.2613 5.05814 7.18847 3.13098 9.56576 3.13098C11.9431 3.13098 13.8702 5.05814 13.8702 7.43544V9.75272C13.8702 11.0859 14.3998 12.3644 15.3425 13.3071ZM11.0817 15.2617H8.0498C8.0498 15.5216 8.06843 15.7883 8.19381 16.0159C8.28123 16.1747 8.39549 16.3166 8.53042 16.4357C8.80629 16.6792 9.16881 16.827 9.56576 16.827C9.96271 16.827 10.3251 16.6792 10.6011 16.4357C10.736 16.3166 10.8502 16.1747 10.9377 16.0159C11.0631 15.7883 11.0817 15.5216 11.0817 15.2617Z" fill="white"/>
<circle cx="14.2615" cy="4.30492" r="2.7392" fill="#FF9053" stroke="white" stroke-width="0.782629"/>
</svg>
