<svg width="19" height="20" viewBox="0 0 19 20" fill="none" xmlns="http://www.w3.org/2000/svg">
<path d="M9.39147 13.5653C9.0673 13.5653 8.8045 13.3025 8.8045 12.9783V11.4131H7.23927C6.9151 11.4131 6.6523 11.1503 6.6523 10.8261C6.6523 10.5019 6.9151 10.2391 7.23927 10.2391H8.8045V8.67388C8.8045 8.34971 9.0673 8.08691 9.39147 8.08691C9.71571 8.08691 9.97844 8.34971 9.97844 8.67388V10.2391H11.5437C11.8679 10.2391 12.1307 10.5019 12.1307 10.8261C12.1307 11.1503 11.8679 11.4131 11.5437 11.4131H9.97844V12.9783C9.97844 13.3025 9.71571 13.5653 9.39147 13.5653Z" fill="white"/>
<path fill-rule="evenodd" clip-rule="evenodd" d="M15.1941 5.67247C15.4876 5.96601 15.6525 6.36414 15.6525 6.77927V16.3051C15.6525 17.1696 14.9517 17.8704 14.0872 17.8704H4.69572C3.83125 17.8704 3.13046 17.1696 3.13046 16.3051V3.78303C3.13046 2.91856 3.83125 2.21777 4.69572 2.21777H11.091C11.5061 2.21777 11.9043 2.38268 12.1978 2.67623L15.1941 5.67247ZM14.4786 6.77927V16.3051C14.4786 16.5213 14.3034 16.6964 14.0872 16.6964H4.69572C4.47961 16.6964 4.30441 16.5213 4.30441 16.3051V3.78303C4.30441 3.56692 4.47961 3.39172 4.69572 3.39172H11.091C11.1948 3.39172 11.2943 3.43295 11.3678 3.50633L14.364 6.50257C14.4374 6.57596 14.4786 6.6755 14.4786 6.77927Z" fill="white"/>
</svg>
