<svg width="26" height="26" viewBox="0 0 26 26" fill="none" xmlns="http://www.w3.org/2000/svg">
<path fill-rule="evenodd" clip-rule="evenodd" d="M7.82633 10.5654C9.33915 10.5654 10.5655 9.33905 10.5655 7.82623C10.5655 6.31341 9.33915 5.08703 7.82633 5.08703C6.31351 5.08703 5.08712 6.31341 5.08712 7.82623C5.08712 9.33905 6.31351 10.5654 7.82633 10.5654ZM7.82633 11.7394C9.9875 11.7394 11.7395 9.9874 11.7395 7.82623C11.7395 5.66506 9.9875 3.91309 7.82633 3.91309C5.66516 3.91309 3.91318 5.66506 3.91318 7.82623C3.91318 9.9874 5.66516 11.7394 7.82633 11.7394ZM15.6526 5.08703H18.7831C19.4315 5.08703 19.9571 5.61263 19.9571 6.26098V9.39149C19.9571 10.0398 19.4315 10.5654 18.7831 10.5654H15.6526C15.0043 10.5654 14.4787 10.0398 14.4787 9.39149V6.26098C14.4787 5.61263 15.0043 5.08703 15.6526 5.08703ZM13.3047 6.26098C13.3047 4.96427 14.3559 3.91309 15.6526 3.91309H18.7831C20.0798 3.91309 21.131 4.96428 21.131 6.26098V9.39149C21.131 10.6882 20.0798 11.7394 18.7831 11.7394H15.6526C14.3559 11.7394 13.3047 10.6882 13.3047 9.39149V6.26098ZM6.26107 14.4786H9.39158C10.0399 14.4786 10.5655 15.0042 10.5655 15.6525V18.783C10.5655 19.4314 10.0399 19.957 9.39158 19.957H6.26106C5.61271 19.957 5.08712 19.4314 5.08712 18.783V15.6525C5.08712 15.0042 5.61271 14.4786 6.26107 14.4786ZM3.91318 15.6525C3.91318 14.3558 4.96436 13.3046 6.26107 13.3046H9.39158C10.6883 13.3046 11.7395 14.3558 11.7395 15.6525V18.783C11.7395 20.0797 10.6883 21.1309 9.39158 21.1309H6.26106C4.96436 21.1309 3.91318 20.0797 3.91318 18.783V15.6525ZM19.9571 17.2178C19.9571 18.7306 18.7307 19.957 17.2179 19.957C15.705 19.957 14.4787 18.7306 14.4787 17.2178C14.4787 15.705 15.705 14.4786 17.2179 14.4786C18.7307 14.4786 19.9571 15.705 19.9571 17.2178ZM21.131 17.2178C21.131 19.379 19.379 21.1309 17.2179 21.1309C15.0567 21.1309 13.3047 19.379 13.3047 17.2178C13.3047 15.0566 15.0567 13.3046 17.2179 13.3046C19.379 13.3046 21.131 15.0566 21.131 17.2178Z" fill="white"/>
</svg>
