<svg width="19" height="20" viewBox="0 0 19 20" fill="none" xmlns="http://www.w3.org/2000/svg">
<path fill-rule="evenodd" clip-rule="evenodd" d="M9.39172 13.1741C11.1207 13.1741 12.5222 11.7725 12.5222 10.0436C12.5222 8.31467 11.1207 6.91309 9.39172 6.91309C7.66281 6.91309 6.26123 8.31467 6.26123 10.0436C6.26123 11.7725 7.66281 13.1741 9.39172 13.1741ZM9.39172 12.0002C10.4723 12.0002 11.3483 11.1242 11.3483 10.0436C11.3483 8.96303 10.4723 8.08703 9.39172 8.08703C8.31115 8.08703 7.43517 8.96303 7.43517 10.0436C7.43517 11.1242 8.31115 12.0002 9.39172 12.0002Z" fill="white"/>
<path fill-rule="evenodd" clip-rule="evenodd" d="M11.832 2.11146L12.1467 4.41956C12.4027 4.54524 12.649 4.68788 12.8839 4.84604L15.041 3.96421C15.4033 3.81611 15.8192 3.95839 16.015 4.29733L17.6797 7.18073C17.8754 7.51968 17.7906 7.95105 17.4812 8.19074L15.6386 9.61821C15.648 9.75877 15.6528 9.90058 15.6528 10.0435C15.6528 10.1864 15.648 10.3282 15.6386 10.4688L17.4812 11.8962C17.7906 12.1359 17.8754 12.5673 17.6797 12.9063L16.015 15.7896C15.8192 16.1286 15.4033 16.2709 15.041 16.1228L12.8839 15.2409C12.649 15.3991 12.4027 15.5418 12.1467 15.6674L11.832 17.9755C11.7791 18.3633 11.4479 18.6524 11.0565 18.6524H7.72702C7.33565 18.6524 7.00445 18.3633 6.95157 17.9755L6.63683 15.6674C6.38077 15.5418 6.13454 15.3991 5.89962 15.2409L3.74252 16.1228C3.38025 16.2709 2.96428 16.1286 2.76859 15.7896L1.10386 12.9063C0.908171 12.5673 0.992938 12.1359 1.30233 11.8962L3.14495 10.4688C3.13552 10.3282 3.13074 10.1864 3.13074 10.0435C3.13074 9.90058 3.13552 9.75877 3.14495 9.61821L1.30233 8.19074C0.992938 7.95105 0.908171 7.51968 1.10385 7.18073L2.76859 4.29733C2.96427 3.95839 3.38025 3.81611 3.74252 3.96421L5.89962 4.84604C6.13454 4.68788 6.38077 4.54524 6.63683 4.41956L6.95157 2.11146C7.00445 1.72367 7.33565 1.43457 7.72702 1.43457H11.0565C11.4479 1.43457 11.7791 1.72367 11.832 2.11146ZM11.068 5.19787L11.6295 5.47343C11.8374 5.57545 12.0373 5.69131 12.2283 5.81986L12.7481 6.1698L15.1691 5.18011L16.4922 7.4719L14.4254 9.07303L14.4672 9.69679C14.4749 9.81121 14.4788 9.9268 14.4788 10.0435C14.4788 10.1602 14.4749 10.2758 14.4672 10.3902L14.4254 11.014L16.4922 12.6151L15.1691 14.9069L12.7481 13.9172L12.2283 14.2671C12.0373 14.3957 11.8374 14.5115 11.6295 14.6136L11.068 14.8891L10.7149 17.4785H8.06862L7.7155 14.8891L7.15404 14.6136C6.94619 14.5115 6.74619 14.3957 6.55522 14.2671L6.03542 13.9172L3.61447 14.9069L2.29131 12.6151L4.35809 11.014L4.31626 10.3902C4.30858 10.2758 4.30467 10.1602 4.30467 10.0435C4.30467 9.9268 4.30858 9.81121 4.31626 9.69679L4.35809 9.07303L2.2913 7.4719L3.61447 5.18011L6.03542 6.1698L6.55522 5.81986C6.74618 5.69131 6.94619 5.57545 7.15405 5.47343L7.7155 5.19787L8.06862 2.60851H10.7149L11.068 5.19787Z" fill="white"/>
</svg>
